<svg width="15" height="27" viewBox="0 0 15 27" fill="none" xmlns="http://www.w3.org/2000/svg">
<path d="M13.8735 0.0056178L10.445 0C6.59318 0 4.10396 2.60807 4.10396 6.64473V9.7084H0.656745C0.358865 9.7084 0.117645 9.95502 0.117645 10.2592V14.6981C0.117645 15.0024 0.359141 15.2487 0.656745 15.2487H4.10396V26.4495C4.10396 26.7537 4.34518 27 4.64306 27H9.14069C9.43857 27 9.67979 26.7534 9.67979 26.4495V15.2487H13.7104C14.0083 15.2487 14.2495 15.0024 14.2495 14.6981L14.2511 10.2592C14.2511 10.1132 14.1942 9.97329 14.0932 9.86991C13.9923 9.76654 13.8548 9.7084 13.7118 9.7084H9.67979V7.11129C9.67979 5.86302 9.97107 5.22933 11.5633 5.22933L13.8729 5.22849C14.1705 5.22849 14.4118 4.98186 14.4118 4.67795V0.556163C14.4118 0.252521 14.1708 0.00617958 13.8735 0.0056178Z" fill="#F5F5F5"/>
</svg>
