<svg width="176" height="51" viewBox="0 0 176 51" fill="none" xmlns="http://www.w3.org/2000/svg">
<path d="M5.05475 31.5209C5.05666 31.4961 5.05666 31.4732 5.05856 31.4484C2.9489 29.1614 2.27938 26.016 3.04809 23.1834C3.43531 21.7566 4.18685 20.4061 5.30654 19.2883L8.33178 16.2631L11.1434 13.4515L12.6656 11.9293C13.9645 10.6303 15.5744 9.82347 17.2587 9.51064C17.2854 9.50492 17.3141 9.5011 17.3408 9.49729C18.5596 9.28174 19.8147 9.32371 21.0184 9.62509C21.4227 9.72618 21.8214 9.85589 22.2086 10.0142C22.6779 9.72428 23.1604 9.46677 23.6545 9.24169C24.2057 8.9899 24.7723 8.77817 25.3464 8.6065C25.1995 8.50731 25.0507 8.41194 24.9001 8.31847C24.3774 7.99802 23.8357 7.72143 23.2806 7.49254C22.2716 7.07671 21.2129 6.80966 20.1428 6.69331C20.1218 6.6914 20.1028 6.68759 20.0818 6.68568C19.3665 6.61129 18.6474 6.60366 17.9302 6.66279C17.9054 6.6647 17.8806 6.6666 17.8577 6.66851C15.2559 6.89741 12.7171 8.00374 10.7295 9.99132L6.39189 14.327L3.36855 17.3522C2.78295 17.9397 2.27366 18.5749 1.84066 19.2445C-1.04534 23.706 -0.53795 29.7413 3.36855 33.6478L5.5793 35.8585C5.16157 34.447 4.98799 32.9801 5.05475 31.5209Z" fill="white"/>
<path d="M37.2147 37.9453L38.6701 36.4899C40.4956 34.3097 41.3863 31.6106 41.3444 28.923C41.3329 28.2401 41.2662 27.5572 41.1346 26.8839C40.9305 25.8405 40.5814 24.82 40.0874 23.8548C39.8203 23.3322 39.5132 22.8267 39.1603 22.3422C38.8074 21.8577 38.4145 21.3923 37.9777 20.9555L31.3607 14.3385C30.0598 13.9112 28.6635 13.8616 27.3398 14.1916L36.0397 22.8915C36.5528 23.4047 36.9858 23.9654 37.3463 24.5606C37.6401 25.047 37.8823 25.5544 38.0731 26.077C38.466 27.1528 38.6434 28.2916 38.6014 29.4227C38.5671 30.3784 38.3764 31.3283 38.033 32.2343C37.6057 33.3578 36.9439 34.4107 36.0416 35.313L31.3473 40.0073C33.4417 40.2323 35.6143 39.5476 37.2147 37.9453Z" fill="white"/>
<path d="M29.23 45.6381C28.1371 45.392 27.0689 45.0048 26.056 44.4784C24.4671 45.186 22.7103 45.3978 21.0203 45.1174C23.3913 47.0039 26.6874 47.1774 29.23 45.6381Z" fill="white"/>
<path d="M5.88452 21.0203C3.99612 23.3913 3.82064 26.6893 5.36187 29.2301C5.60793 28.1371 5.99515 27.0689 6.52161 26.056C5.81585 24.4671 5.60221 22.7103 5.88452 21.0203Z" fill="white"/>
<path d="M13.0528 37.2147L14.5101 38.672C16.6884 40.4956 19.3875 41.3864 22.077 41.3463C22.7599 41.3349 23.4428 41.2681 24.1161 41.1365C25.1595 40.9324 26.18 40.5833 27.1451 40.0893C27.6678 39.8222 28.1733 39.5151 28.6578 39.1623C29.1423 38.8094 29.6077 38.4164 30.0445 37.9796L36.6615 31.3626C37.0888 30.0617 37.1384 28.6655 36.8084 27.3417L28.1084 36.0416C27.5953 36.5547 27.0345 36.9877 26.4394 37.3483C25.953 37.642 25.4456 37.8842 24.9229 38.075C23.8471 38.4679 22.7084 38.6453 21.5772 38.6034C20.6216 38.569 19.6717 38.3783 18.7656 38.0349C17.6421 37.6077 16.5892 36.9458 15.6851 36.0416L10.9908 31.3474C10.7657 33.4418 11.4524 35.6144 13.0528 37.2147Z" fill="white"/>
<path d="M19.4771 5.05477C19.5019 5.05668 19.5248 5.05668 19.5496 5.05859C21.8367 2.94893 24.9821 2.2794 27.8147 3.04812C29.2434 3.43533 30.5919 4.18687 31.7097 5.30656L37.5466 11.1434L39.0687 12.6656C40.3677 13.9646 41.1727 15.5745 41.4855 17.2569C41.4912 17.2836 41.495 17.3122 41.4989 17.3389C41.7144 18.5577 41.6724 19.8129 41.3711 21.0165C41.27 21.4209 41.1403 21.8195 40.9819 22.2086C41.2719 22.676 41.5294 23.1586 41.7545 23.6526C42.0062 24.2039 42.218 24.7704 42.3896 25.3464C42.4888 25.1996 42.5842 25.0508 42.6777 24.9001C42.9981 24.3774 43.2747 23.8357 43.5036 23.2806C43.9194 22.2716 44.1865 21.2129 44.3028 20.1429C44.3047 20.1219 44.3086 20.1028 44.3105 20.0818C44.3849 19.3665 44.3925 18.6474 44.3334 17.9302C44.3314 17.9054 44.3295 17.8806 44.3276 17.8577C44.0987 15.2559 42.9924 12.7171 41.0067 10.7314L41.0048 10.7295L33.6477 3.36857C33.0602 2.78107 32.425 2.27368 31.7555 1.84069C27.2939 -1.04531 21.2587 -0.537927 17.3522 3.36857L15.1414 5.57742C16.553 5.16159 18.0198 4.98801 19.4771 5.05477Z" fill="white"/>
<path d="M21.768 5.3619C22.861 5.60796 23.9292 5.99518 24.942 6.52164C26.531 5.81397 28.2877 5.60033 29.9797 5.88263C27.6068 3.99424 24.3107 3.82066 21.768 5.3619Z" fill="white"/>
<path d="M11.8378 28.6598C12.1906 29.1443 12.5836 29.6097 13.0204 30.0465L19.6374 36.6635C20.9383 37.0908 22.3346 37.1404 23.6584 36.8104L14.9584 28.1104C14.4453 27.5973 14.0123 27.0365 13.6518 26.4414C13.358 25.955 13.1158 25.4476 12.925 24.925C12.5321 23.8491 12.3547 22.7104 12.3967 21.5793C12.431 20.6236 12.6217 19.6737 12.9651 18.7677C13.3924 17.6442 14.0542 16.5912 14.9584 15.689L19.6527 10.9947C17.5602 10.7696 15.3857 11.4544 13.7853 13.0567L12.3299 14.5121C10.5063 16.6904 9.61365 19.3914 9.65562 22.079C9.66706 22.7619 9.73383 23.4448 9.86544 24.1181C10.0695 25.1615 10.4186 26.182 10.9126 27.1472C11.1778 27.6679 11.4849 28.1734 11.8378 28.6598Z" fill="white"/>
<path d="M49.1592 31.7555C52.0452 27.294 51.5379 21.2587 47.6314 17.3523L45.4206 15.1415C45.8364 16.5511 46.0119 18.0199 45.9451 19.4772C45.9432 19.502 45.9432 19.5249 45.9413 19.5497C48.051 21.8367 48.7205 24.9821 47.9518 27.8147C47.5646 29.2434 46.813 30.592 45.6934 31.7098L42.67 34.735L39.8565 37.5485L38.3363 39.0688C37.0373 40.3678 35.4274 41.1746 33.7431 41.4875C33.7164 41.4932 33.6878 41.497 33.661 41.5008C32.4422 41.7164 31.1871 41.6744 29.9834 41.373C29.5791 41.2719 29.1823 41.1422 28.7932 40.9839C28.3239 41.2738 27.8414 41.5313 27.3473 41.7564C26.7961 42.0082 26.2295 42.2199 25.6554 42.3897C25.8023 42.4889 25.9511 42.5843 26.1017 42.6777C26.6244 42.9982 27.1661 43.2748 27.7212 43.5036C28.7302 43.9195 29.7889 44.1865 30.859 44.3029C30.88 44.3048 30.899 44.3086 30.92 44.3105C31.6353 44.3849 32.3544 44.3925 33.0716 44.3334C33.0964 44.3315 33.1212 44.3296 33.1441 44.3277C35.7459 44.0988 38.2867 42.9924 40.2723 41.0049L44.6061 36.6711L47.6314 33.6458C48.2169 33.0603 48.7262 32.4251 49.1592 31.7555Z" fill="white"/>
<path d="M45.6381 21.7699C45.392 22.8629 45.0048 23.9311 44.4783 24.944C45.186 26.5329 45.3977 28.2897 45.1173 29.9797C47.0038 27.6068 47.1793 24.3107 45.6381 21.7699Z" fill="white"/>
<path d="M31.521 45.9453C31.4962 45.9434 31.4733 45.9434 31.4485 45.9415C29.1614 48.0511 26.016 48.7206 23.1834 47.9519C21.7547 47.5647 20.4061 46.8132 19.2884 45.6935L16.2669 42.6721L13.4515 39.8566L11.9293 38.3345C10.6304 37.0355 9.82349 35.4256 9.51067 33.7413C9.50494 33.7146 9.50113 33.686 9.49731 33.6593C9.28177 32.4404 9.32373 31.1853 9.62512 29.9817C9.72621 29.5773 9.85592 29.1786 10.0142 28.7914C9.7243 28.3222 9.4668 27.8396 9.24171 27.3455C8.98993 26.7943 8.7782 26.2278 8.60653 25.6536C8.50734 25.8005 8.41196 25.9493 8.3185 26.1C7.99804 26.6226 7.72146 27.1643 7.49256 27.7194C7.07674 28.7285 6.80969 29.7871 6.69333 30.8572C6.69143 30.8782 6.68761 30.8972 6.6857 30.9182C6.61131 31.6335 6.60368 32.3526 6.66282 33.0699C6.66472 33.0946 6.66663 33.1194 6.66854 33.1423C6.89743 35.7441 8.00377 38.283 9.99135 40.2705L14.3289 44.6081L17.3504 47.6296C17.9379 48.2171 18.5731 48.7244 19.2426 49.1574C23.7041 52.0434 29.7394 51.5361 33.6459 47.6296L35.8566 45.4188C34.447 45.8365 32.9802 46.012 31.521 45.9453Z" fill="white"/>
<path d="M20.9535 13.0185L14.3365 19.6355C13.9092 20.9364 13.8596 22.3326 14.1896 23.6564L22.8896 14.9565C23.4027 14.4434 23.9635 14.0104 24.5586 13.6498C25.045 13.3561 25.5524 13.1138 26.0751 12.9231C27.1509 12.5302 28.2877 12.3528 29.4208 12.3947C30.3764 12.4291 31.3263 12.6198 32.2324 12.9632C33.3559 13.3904 34.4088 14.0523 35.3129 14.9565L40.0072 19.6507C40.2323 17.5583 39.5475 15.3856 37.9471 13.7853L37.9452 13.7834L36.4898 12.328C34.3096 10.5044 31.6105 9.61174 28.9229 9.6537C28.24 9.66514 27.5572 9.73191 26.8838 9.86352C25.8404 10.0676 24.8199 10.4167 23.8548 10.9107C23.3321 11.1778 22.8266 11.4849 22.3421 11.8378C21.8557 12.1887 21.3903 12.5817 20.9535 13.0185Z" fill="white"/>
<path d="M84.4323 34.104H73.7763L71.7963 39H64.5243L75.6483 13.8H82.6683L93.8283 39H86.4123L84.4323 34.104ZM82.3443 28.848L79.1043 20.784L75.8643 28.848H82.3443ZM106.59 39.504C102.846 39.504 99.9297 38.484 97.8417 36.444C95.7777 34.404 94.7457 31.512 94.7457 27.768V13.8H101.874V27.552C101.874 31.584 103.47 33.6 106.662 33.6C109.83 33.6 111.414 31.584 111.414 27.552V13.8H118.434V27.768C118.434 31.512 117.39 34.404 115.302 36.444C113.238 38.484 110.334 39.504 106.59 39.504ZM133.919 32.304H130.03V39H122.902V13.8H134.423C136.703 13.8 138.683 14.184 140.362 14.952C142.042 15.696 143.339 16.776 144.251 18.192C145.163 19.584 145.619 21.228 145.619 23.124C145.619 24.948 145.187 26.544 144.323 27.912C143.483 29.256 142.271 30.312 140.687 31.08L146.123 39H138.491L133.919 32.304ZM138.419 23.124C138.419 21.948 138.047 21.036 137.303 20.388C136.559 19.74 135.455 19.416 133.991 19.416H130.03V26.796H133.991C135.455 26.796 136.559 26.484 137.303 25.86C138.047 25.212 138.419 24.3 138.419 23.124ZM166.075 34.104H155.419L153.439 39H146.167L157.291 13.8H164.311L175.471 39H168.055L166.075 34.104ZM163.987 28.848L160.747 20.784L157.507 28.848H163.987Z" fill="white"/>
</svg>
