<svg width="31" height="26" viewBox="0 0 31 26" fill="none" xmlns="http://www.w3.org/2000/svg">
<path d="M30.353 3.60605C29.1658 4.13551 27.9784 4.46616 26.7918 4.59897C28.132 3.76515 29.0386 2.58718 29.511 1.06515C28.2849 1.81942 26.9767 2.33546 25.5856 2.61353C24.3599 1.26354 22.8539 0.588257 21.0665 0.588257C19.3561 0.588257 17.8979 1.21354 16.691 2.46437C15.485 3.71514 14.8818 5.22718 14.8818 7.00066C14.8818 7.47705 14.9328 7.96695 15.035 8.46985C12.5075 8.33752 10.1364 7.67908 7.92154 6.4945C5.70676 5.30978 3.82712 3.73143 2.28261 1.75941C1.72093 2.75185 1.44 3.83072 1.44 4.99541C1.44 6.09397 1.68887 7.11323 2.18697 8.05298C2.68473 8.99257 3.35505 9.75351 4.19758 10.336C3.20174 10.2962 2.26992 10.0248 1.40204 9.52182V9.60122C1.40204 11.1499 1.87116 12.5096 2.80928 13.6813C3.74752 14.8528 4.93156 15.5903 6.36112 15.8949C5.82494 16.0403 5.28231 16.1131 4.7335 16.1131C4.37604 16.1131 3.98667 16.08 3.5655 16.0143C3.96118 17.2979 4.68884 18.353 5.74821 19.1808C6.80777 20.0079 8.00771 20.4343 9.34808 20.4614C7.10152 22.2876 4.54217 23.2007 1.67003 23.2007C1.12103 23.2007 0.623341 23.1748 0.176483 23.1216C3.0487 25.0405 6.21438 26 9.67376 26C11.8693 26 13.9309 25.6397 15.8578 24.9181C17.7858 24.1971 19.4322 23.2308 20.7982 22.0194C22.1639 20.8085 23.3416 19.4155 24.3309 17.8404C25.32 16.2654 26.057 14.621 26.5425 12.907C27.0273 11.1927 27.2699 9.47579 27.2699 7.75486C27.2699 7.38423 27.2635 7.10642 27.2506 6.92103C28.4637 6.00822 29.4976 4.90285 30.353 3.60605Z" fill="#F5F5F5"/>
</svg>
