<svg width="34" height="25" viewBox="0 0 34 25" fill="none" xmlns="http://www.w3.org/2000/svg">
<path d="M32.0529 2.63335C30.849 1.18077 28.6261 0.588257 24.3812 0.588257H8.97152C4.62928 0.588257 2.36881 1.21899 1.1694 2.76546C0 4.27329 0 6.49495 0 9.56977V15.4304C0 21.3873 1.38748 24.4118 8.97152 24.4118H24.3812C28.0625 24.4118 30.1024 23.889 31.4222 22.6071C32.7756 21.2925 33.3529 19.1462 33.3529 15.4304V9.56977C33.3529 6.32711 33.2625 4.09235 32.0529 2.63335ZM21.4128 13.3092L14.4152 17.021C14.2588 17.104 14.0877 17.1451 13.9169 17.1451C13.7234 17.1451 13.5304 17.0923 13.3595 16.9872C13.0376 16.7893 12.841 16.4351 12.841 16.0531V8.65337C12.841 8.27204 13.037 7.91825 13.3583 7.72015C13.6797 7.52208 14.0793 7.50854 14.4128 7.68434L21.4103 11.3722C21.7663 11.5598 21.9898 11.9328 21.9903 12.3398C21.9908 12.7471 21.7682 13.1207 21.4128 13.3092Z" fill="#F5F5F5"/>
</svg>
